<?xml version="1.0" encoding="utf-8"?>
<!-- Generator: Adobe Illustrator 16.0.1, SVG Export Plug-In . SVG Version: 6.00 Build 0)  -->
<!DOCTYPE svg PUBLIC "-//W3C//DTD SVG 1.1//EN" "http://www.w3.org/Graphics/SVG/1.1/DTD/svg11.dtd">
<svg version="1.1" id="Layer_1" xmlns="http://www.w3.org/2000/svg" xmlns:xlink="http://www.w3.org/1999/xlink" x="0px" y="0px"
	 width="13px" height="25px" viewBox="0 0 13 25" enable-background="new 0 0 13 25" xml:space="preserve">
<g>
	<rect x="12" y="24" fill="#FFFFFF" width="1" height="1"/>
	<rect x="11" y="23" fill="#FFFFFF" width="1" height="1"/>
	<rect x="10" y="22" fill="#FFFFFF" width="1" height="1"/>
	<rect x="9" y="21" fill="#FFFFFF" width="1" height="1"/>
	<rect x="8" y="20" fill="#FFFFFF" width="1" height="1"/>
	<rect x="7" y="19" fill="#FFFFFF" width="1" height="1"/>
	<rect x="6" y="18" fill="#FFFFFF" width="1" height="1"/>
	<rect x="5" y="17" fill="#FFFFFF" width="1" height="1"/>
	<rect x="4" y="16" fill="#FFFFFF" width="1" height="1"/>
	<rect x="3" y="15" fill="#FFFFFF" width="1" height="1"/>
	<rect x="2" y="14" fill="#FFFFFF" width="1" height="1"/>
	<rect x="1" y="13" fill="#FFFFFF" width="1" height="1"/>
	<rect y="12" fill="#FFFFFF" width="1" height="1"/>
	<rect x="1" y="11" fill="#FFFFFF" width="1" height="1"/>
	<rect x="2" y="10" fill="#FFFFFF" width="1" height="1"/>
	<rect x="3" y="9" fill="#FFFFFF" width="1" height="1"/>
	<rect x="4" y="8" fill="#FFFFFF" width="1" height="1"/>
	<rect x="5" y="7" fill="#FFFFFF" width="1" height="1"/>
	<rect x="6" y="6" fill="#FFFFFF" width="1" height="1"/>
	<rect x="7" y="5" fill="#FFFFFF" width="1" height="1"/>
	<rect x="8" y="4" fill="#FFFFFF" width="1" height="1"/>
	<rect x="9" y="3" fill="#FFFFFF" width="1" height="1"/>
	<rect x="10" y="2" fill="#FFFFFF" width="1" height="1"/>
	<rect x="11" y="1" fill="#FFFFFF" width="1" height="1"/>
	<rect x="12" fill="#FFFFFF" width="1" height="1"/>
</g>
</svg>
