<?xml version="1.0" encoding="utf-8"?>
<!-- Generator: Adobe Illustrator 16.0.1, SVG Export Plug-In . SVG Version: 6.00 Build 0)  -->
<!DOCTYPE svg PUBLIC "-//W3C//DTD SVG 1.1//EN" "http://www.w3.org/Graphics/SVG/1.1/DTD/svg11.dtd">
<svg version="1.1" id="Layer_1" xmlns="http://www.w3.org/2000/svg" xmlns:xlink="http://www.w3.org/1999/xlink" x="0px" y="0px"
	 width="80px" height="80px" viewBox="0 0 80 80" enable-background="new 0 0 80 80" xml:space="preserve">
<g>
	<rect x="0" width="80" height="80"/>
	<g>
		<g>
			<polygon fill="#FFFFFF" points="30.105,50.043 32.458,50.609 40.811,42.256 39.351,40.796 			"/>
			<path fill="#FFFFFF" d="M46.327,36.741c-0.672,0.672-1.761,0.672-2.434,0l-0.486-0.487c-0.672-0.673-0.672-1.762,0-2.433
				l4.608-4.609c0.672-0.671,1.761-0.671,2.433,0l0.488,0.487c0.671,0.672,0.671,1.761,0,2.434L46.327,36.741z"/>
			
				<rect x="39.7" y="32.922" transform="matrix(0.7071 0.7071 -0.7071 0.7071 37.983 -21.6511)" fill="#FFFFFF" width="10.851" height="4.201"/>
			<path fill="#FFFFFF" d="M31.768,51.104c-0.598,0-1.159-0.232-1.583-0.655L29.7,49.961c-0.423-0.422-0.655-0.984-0.655-1.582
				c0-0.596,0.233-1.158,0.655-1.581l13.773-13.773c0.422-0.422,0.983-0.656,1.582-0.656c0.597,0,1.158,0.233,1.581,0.656
				l0.487,0.486c0.871,0.872,0.871,2.291,0,3.163L33.349,50.448C32.927,50.87,32.365,51.104,31.768,51.104z M45.055,33.402
				c-0.322,0-0.625,0.125-0.852,0.353L30.429,47.528c-0.228,0.228-0.352,0.53-0.352,0.851c0,0.322,0.124,0.625,0.352,0.853
				l0.487,0.487c0.454,0.454,1.248,0.453,1.703,0l13.773-13.774c0.469-0.47,0.47-1.233,0-1.703l-0.486-0.486
				C45.678,33.527,45.375,33.402,45.055,33.402z"/>
			
				<rect x="28.872" y="49.589" transform="matrix(0.7068 0.7074 -0.7074 0.7068 44.3946 -6.2184)" fill="#FFFFFF" width="1.655" height="1.719"/>
		</g>
		<g>
			<path fill="#FFFFFF" d="M30.77,57.524c0,0.954-0.772,1.727-1.726,1.727c-0.954,0-1.727-0.772-1.727-1.727
				c0-0.953,0.772-2.073,1.727-2.073C29.998,55.451,30.77,56.571,30.77,57.524z"/>
			<polygon fill="#FFFFFF" points="27.709,56.29 29.044,53.267 30.379,56.29 			"/>
		</g>
	</g>
</g>
</svg>
