<?xml version="1.0" encoding="utf-8"?>
<!-- Generator: Adobe Illustrator 16.0.1, SVG Export Plug-In . SVG Version: 6.00 Build 0)  -->
<!DOCTYPE svg PUBLIC "-//W3C//DTD SVG 1.1//EN" "http://www.w3.org/Graphics/SVG/1.1/DTD/svg11.dtd">
<svg version="1.1" id="Layer_1" xmlns="http://www.w3.org/2000/svg" xmlns:xlink="http://www.w3.org/1999/xlink" x="0px" y="0px"
	 width="100px" height="100px" viewBox="0 0 100 100" enable-background="new 0 0 100 100" xml:space="preserve">
<g>
	<g>
		<g>
			<rect x="49.751" y="0.498" fill="#DEDDDD" width="0.995" height="2.985"/>
			<path fill="#DEDDDD" d="M50.746,90.779h-0.995v-6.235h0.995V90.779z M50.746,78.309h-0.995v-6.235h0.995V78.309z M50.746,65.838
				h-0.995v-6.235h0.995V65.838z M50.746,53.366h-0.995v-6.235h0.995V53.366z M50.746,40.896h-0.995V34.66h0.995V40.896z
				 M50.746,28.424h-0.995v-6.235h0.995V28.424z M50.746,15.954h-0.995V9.718h0.995V15.954z"/>
			<rect x="49.751" y="97.015" fill="#DEDDDD" width="0.995" height="2.985"/>
		</g>
		<g>
			<rect x="0.498" y="49.751" fill="#DEDDDD" width="2.985" height="0.995"/>
			<path fill="#DEDDDD" d="M90.779,50.746h-6.235v-0.995h6.235V50.746z M78.309,50.746h-6.235v-0.995h6.235V50.746z M65.838,50.746
				h-6.235v-0.995h6.235V50.746z M53.366,50.746h-6.235v-0.995h6.235V50.746z M40.896,50.746H34.66v-0.995h6.235V50.746z
				 M28.424,50.746h-6.235v-0.995h6.235V50.746z M15.954,50.746H9.718v-0.995h6.236V50.746z"/>
			<rect x="97.015" y="49.751" fill="#DEDDDD" width="2.985" height="0.995"/>
		</g>
	</g>
	<rect fill="#CCCCCC" width="100" height="0.995"/>
	<rect fill="#CCCCCC" width="0.995" height="100"/>
</g>
</svg>
