<?xml version="1.0" encoding="utf-8"?>
<!-- Generator: Adobe Illustrator 16.0.1, SVG Export Plug-In . SVG Version: 6.00 Build 0)  -->
<!DOCTYPE svg PUBLIC "-//W3C//DTD SVG 1.1//EN" "http://www.w3.org/Graphics/SVG/1.1/DTD/svg11.dtd">
<svg version="1.1" id="Layer_1" xmlns="http://www.w3.org/2000/svg" xmlns:xlink="http://www.w3.org/1999/xlink" x="0px" y="0px"
	 width="80px" height="80px" viewBox="0 0 80 80" enable-background="new 0 0 80 80" xml:space="preserve">
<g>
	<rect x="0" width="80" height="80"/>
	<g>
		<path fill="#FFFFFF" d="M53.717,47.817c0,0.985-0.799,1.786-1.785,1.786H28.068c-0.986,0-1.786-0.801-1.786-1.786V34.248
			c0-0.985,0.8-1.785,1.786-1.785h23.864c0.986,0,1.785,0.8,1.785,1.785V47.817z"/>
		<path fill="#FFFFFF" d="M34.324,35.408c0,0.697-0.565,1.263-1.264,1.263h-3.425c-0.698,0-1.264-0.566-1.264-1.263V31.66
			c0-0.697,0.565-1.263,1.264-1.263h3.425c0.698,0,1.264,0.566,1.264,1.263V35.408z"/>
		<path d="M34.324,35.805c0,0.697-0.565,1.263-1.264,1.263h-3.425c-0.698,0-1.264-0.566-1.264-1.263v0.011
			c0-0.698,0.565-1.263,1.264-1.263h3.425c0.698,0,1.264,0.565,1.264,1.263V35.805z"/>
		<path d="M45.147,47.512c-3.572,0-6.478-2.906-6.478-6.479s2.905-6.479,6.478-6.479s6.479,2.906,6.479,6.479
			S48.719,47.512,45.147,47.512z M45.147,37.055c-2.193,0-3.979,1.784-3.979,3.979c0,2.193,1.785,3.979,3.979,3.979
			s3.979-1.785,3.979-3.979C49.125,38.839,47.34,37.055,45.147,37.055z"/>
	</g>
</g>
</svg>
